# xmcd
#
# Track frame offsets:
# 150
# 270955
# 278657
# 280780
# 283228
# 286015
# 289067
# 298416
# 308388
# 311592
# 314428
# 317424
# 320663
# 323550
#
# Disc length: 4358 seconds
#
#
# Revision: 4
# Processed by: cddbd v1.4PL0 Copyright (c) Steve Scherf et al.
# Submitted via: FreeRIP 2.35 
#
DISCID=d211040e
DTITLE=Tom Clancy's Rainbow Six - Rogue Spear: In-game tracks
DYEAR=1900
DGENRE=
TTITLE0=PC-CDROM data track
TTITLE1=Main Menu title music
TTITLE2=in-game track 3
TTITLE3=in-game track 4
TTITLE4=in-game track 5
TTITLE5=in-game track 6
TTITLE6=in-game track 7
TTITLE7=in-game track 8
TTITLE8=in-game track 9
TTITLE9=in-game track 10
TTITLE10=in-game track 11
TTITLE11=in-game track 12
TTITLE12=in-game track 13
TTITLE13=in-game track 14
EXTD=
EXTT0=
EXTT1=
EXTT2=
EXTT3=
EXTT4=
EXTT5=
EXTT6=
EXTT7=
EXTT8=
EXTT9=
EXTT10=
EXTT11=
EXTT12=
EXTT13=
PLAYORDER=
